<?xml version="1.0" encoding="UTF-8" standalone="no"?><svg xmlns="http://www.w3.org/2000/svg" xmlns:xlink="http://www.w3.org/1999/xlink" contentScriptType="application/ecmascript" contentStyleType="text/css" height="340px" preserveAspectRatio="none" style="width:392px;height:340px;" version="1.1" viewBox="0 0 392 340" width="392px" zoomAndPan="magnify"><defs/><g><!--MD5=[e5ae3f02a67d6b42f95be21b01a09278]
cluster FeatureToggles: Controllers--><path d="M25,24 L209,24 A4.5,4.5 0 0 1 212,27 L219,44.4844 L377,44.4844 A3,3 0 0 1 380,47.4844 L380,113 A3,3 0 0 1 377,116 L25,116 A3,3 0 0 1 22,113 L22,27 A3,3 0 0 1 25,24 " fill="#FFFFFF" style="stroke: #000000; stroke-width: 1.5;"/><line style="stroke: #000000; stroke-width: 1.5;" x1="22" x2="219" y1="44.4844" y2="44.4844"/><text fill="#000000" font-family="Tahoma, sans-serif" font-size="12" font-weight="bold" lengthAdjust="spacingAndGlyphs" textLength="184" x="26" y="38.0059">FeatureToggles: Controllers</text><!--MD5=[9c25c7e8463a60a5c06efd5e387b3eea]
cluster FeatureToggles: Usecases--><path d="M116,140 L291,140 A4.5,4.5 0 0 1 294,143 L301,160.4844 L301,160.4844 A3,3 0 0 1 304,163.4844 L304,222 A3,3 0 0 1 301,225 L116,225 A3,3 0 0 1 113,222 L113,143 A3,3 0 0 1 116,140 " fill="#FFFFFF" style="stroke: #000000; stroke-width: 1.5;"/><line style="stroke: #000000; stroke-width: 1.5;" x1="113" x2="301" y1="160.4844" y2="160.4844"/><text fill="#000000" font-family="Tahoma, sans-serif" font-size="12" font-weight="bold" lengthAdjust="spacingAndGlyphs" textLength="175" x="117" y="154.0059">FeatureToggles: Usecases</text><!--MD5=[1b584a516c464aa6d109c053ced612f1]
cluster FeatureToggles: Config--><path d="M127,249 L280,249 A4.5,4.5 0 0 1 283,252 L290,269.4844 L290,269.4844 A3,3 0 0 1 293,272.4844 L293,325 A3,3 0 0 1 290,328 L127,328 A3,3 0 0 1 124,325 L124,252 A3,3 0 0 1 127,249 " fill="#FFFFFF" style="stroke: #000000; stroke-width: 1.5;"/><line style="stroke: #000000; stroke-width: 1.5;" x1="124" x2="290" y1="269.4844" y2="269.4844"/><text fill="#000000" font-family="Tahoma, sans-serif" font-size="12" font-weight="bold" lengthAdjust="spacingAndGlyphs" textLength="153" x="128" y="263.0059">FeatureToggles: Config</text><ellipse cx="301.2284" cy="78.4457" fill="#F8F8F8" rx="62.7284" ry="14.9457" style="stroke: #383838; stroke-width: 0.5;"/><text fill="#000000" font-family="Tahoma, sans-serif" font-size="12" font-weight="bold" lengthAdjust="spacingAndGlyphs" textLength="95" x="253.7284" y="82.1879">AuthController</text><ellipse cx="132.9726" cy="78.2945" fill="#F8F8F8" rx="94.4726" ry="21.2945" style="stroke: #383838; stroke-width: 0.5;"/><text fill="#000000" font-family="Tahoma, sans-serif" font-size="12" font-weight="bold" lengthAdjust="spacingAndGlyphs" textLength="168" x="48.9726" y="82.0367">FeatureTogglesController</text><ellipse cx="207.781" cy="191.0562" fill="#F8F8F8" rx="78.281" ry="18.0562" style="stroke: #383838; stroke-width: 0.5;"/><text fill="#000000" font-family="Tahoma, sans-serif" font-size="12" lengthAdjust="spacingAndGlyphs" textLength="132" x="141.781" y="194.7984">getUserFeatureToggles</text><ellipse cx="208.1268" cy="297.0254" fill="#F8F8F8" rx="63.1268" ry="15.0254" style="stroke: #383838; stroke-width: 0.5;"/><text fill="#000000" font-family="Tahoma, sans-serif" font-size="12" lengthAdjust="spacingAndGlyphs" textLength="96" x="160.1268" y="300.7675">userPermissions</text><!--MD5=[28069d243e4df908a69b935ce0e7dad7]
link <b>AuthController</b> to getUserFeatureToggles--><path d="M289.221,93.495 C273.117,112.63 244.103,147.104 225.464,169.249 " fill="none" id="&lt;b&gt;AuthController&lt;/b&gt;-&gt;getUserFeatureToggles" style="stroke: #000000; stroke-width: 1.0;"/><polygon fill="#000000" points="222.11,173.234,230.9658,168.9241,225.3297,169.4086,224.8452,163.7726,222.11,173.234" style="stroke: #000000; stroke-width: 1.0;"/><!--MD5=[004993713efbb90339b7d624a67ae288]
link <b>FeatureTogglesController</b> to getUserFeatureToggles--><path d="M146.931,100.025 C160.164,119.522 179.982,148.72 193.424,168.524 " fill="none" id="&lt;b&gt;FeatureTogglesController&lt;/b&gt;-&gt;getUserFeatureToggles" style="stroke: #000000; stroke-width: 1.0;"/><polygon fill="#000000" points="196.358,172.848,194.6124,163.1551,193.5497,168.7112,187.9935,167.6484,196.358,172.848" style="stroke: #000000; stroke-width: 1.0;"/><!--MD5=[8f529ad73fb8c78be76c291baf36632e]
link getUserFeatureToggles to userPermissions--><path d="M208,209.173 C208,227.736 208,257.2573 208,276.6332 " fill="none" id="getUserFeatureToggles-&gt;userPermissions" style="stroke: #000000; stroke-width: 0.5;"/><polygon fill="#000000" points="208,281.8116,212,272.8116,208,276.8116,204,272.8116,208,281.8116" style="stroke: #000000; stroke-width: 0.5;"/><script type="text/plantuml"><![CDATA[MD5=[d33548eeda1a706b9e8f61f3008da543]
@startuml

scale max 1920 width
top to bottom direction

skinparam nodesep 11
skinparam ranksep 22
skinparam monochrome true
skinparam shadowing false
skinparam defaultFontName Tahoma
skinparam defaultFontSize 12
skinparam roundCorner 6
skinparam dpi 150
skinparam arrowColor black
skinparam arrowThickness 0.5
skinparam packageTitleAlignment left

skinparam usecase {
  borderThickness 0.5
}

skinparam rectangle {
  borderThickness 0.5
}

skinparam component {
  borderThickness 1
}


package "FeatureToggles: Controllers" {
  (<b>AuthController</b>)
  (<b>FeatureTogglesController</b>)
}

package "FeatureToggles: Usecases" {
  (getUserFeatureToggles)
}

package "FeatureToggles: Config" {
  (userPermissions)
}

(<b>AuthController</b>) --[thickness=1]> (getUserFeatureToggles)
(<b>FeatureTogglesController</b>) --[thickness=1]> (getUserFeatureToggles)
(getUserFeatureToggles) --> (userPermissions)

@enduml


' View and edit on https://arkit.pro
]]></script></g></svg>