<?xml version="1.0" encoding="UTF-8" standalone="no"?><svg xmlns="http://www.w3.org/2000/svg" xmlns:xlink="http://www.w3.org/1999/xlink" contentScriptType="application/ecmascript" contentStyleType="text/css" height="115px" preserveAspectRatio="none" style="width:245px;height:115px;" version="1.1" viewBox="0 0 245 115" width="245px" zoomAndPan="magnify"><defs/><g><!--MD5=[e6e00047a7c4075568398ef428529c42]
cluster FakeUserBasic: Controllers--><path d="M25,24 L220,24 A4.5,4.5 0 0 1 223,27 L230,43.9688 L230,43.9688 A3,3 0 0 1 233,46.9688 L233,100 A3,3 0 0 1 230,103 L25,103 A3,3 0 0 1 22,100 L22,27 A3,3 0 0 1 25,24 " fill="#FFFFFF" style="stroke: #000000; stroke-width: 1.5;"/><line style="stroke: #000000; stroke-width: 1.5;" x1="22" x2="230" y1="43.9688" y2="43.9688"/><text fill="#000000" font-family="Tahoma, sans-serif" font-size="12" font-weight="bold" lengthAdjust="spacingAndGlyphs" textLength="195" x="26" y="37.1387">FakeUserBasic: Controllers</text><ellipse cx="127.0538" cy="71.6108" fill="#F8F8F8" rx="66.0538" ry="15.6108" style="stroke: #383838; stroke-width: 0.5;"/><text fill="#000000" font-family="Tahoma, sans-serif" font-size="12" font-weight="bold" lengthAdjust="spacingAndGlyphs" textLength="105" x="74.5538" y="75.0951">FakeUserBasic</text><script type="text/plantuml"><![CDATA[MD5=[d16822e5933f7d73de03bfd3ea783c1a]
@startuml

scale max 1920 width
top to bottom direction

skinparam nodesep 10
skinparam ranksep 21
skinparam monochrome true
skinparam shadowing false
skinparam defaultFontName Tahoma
skinparam defaultFontSize 12
skinparam roundCorner 6
skinparam dpi 150
skinparam arrowColor black
skinparam arrowThickness 0.5
skinparam packageTitleAlignment left

skinparam usecase {
  borderThickness 0.5
}

skinparam rectangle {
  borderThickness 0.5
}

skinparam component {
  borderThickness 1
}


package "FakeUserBasic: Controllers" {
  (<b>FakeUserBasic</b>)
}


@enduml


' View and edit on https://arkit.pro
]]></script></g></svg>