<?xml version="1.0" encoding="UTF-8" standalone="no"?><svg xmlns="http://www.w3.org/2000/svg" xmlns:xlink="http://www.w3.org/1999/xlink" contentScriptType="application/ecmascript" contentStyleType="text/css" height="519px" preserveAspectRatio="none" style="width:694px;height:519px;" version="1.1" viewBox="0 0 694 519" width="694px" zoomAndPan="magnify"><defs/><g><!--MD5=[606bc1215b145f737bef9b208052f14f]
cluster FakeUser: Controllers--><path d="M453,24 L610,24 A4.5,4.5 0 0 1 613,27 L620,43.9688 L643,43.9688 A3,3 0 0 1 646,46.9688 L646,106 A3,3 0 0 1 643,109 L453,109 A3,3 0 0 1 450,106 L450,27 A3,3 0 0 1 453,24 " fill="#FFFFFF" style="stroke: #000000; stroke-width: 1.5;"/><line style="stroke: #000000; stroke-width: 1.5;" x1="450" x2="620" y1="43.9688" y2="43.9688"/><text fill="#000000" font-family="Tahoma, sans-serif" font-size="12" font-weight="bold" lengthAdjust="spacingAndGlyphs" textLength="157" x="454" y="37.1387">FakeUser: Controllers</text><!--MD5=[fe401929c1b0c4b447bdcdf64f43bb8f]
cluster FakeUser: Usecases--><path d="M319,133 L462,133 A4.5,4.5 0 0 1 465,136 L472,152.9688 L473,152.9688 A3,3 0 0 1 476,155.9688 L476,208 A3,3 0 0 1 473,211 L319,211 A3,3 0 0 1 316,208 L316,136 A3,3 0 0 1 319,133 " fill="#FFFFFF" style="stroke: #000000; stroke-width: 1.5;"/><line style="stroke: #000000; stroke-width: 1.5;" x1="316" x2="472" y1="152.9688" y2="152.9688"/><text fill="#000000" font-family="Tahoma, sans-serif" font-size="12" font-weight="bold" lengthAdjust="spacingAndGlyphs" textLength="143" x="320" y="146.1387">FakeUser: Usecases</text><!--MD5=[0e0fa693542fee2d1d0966cb059ab3d7]
cluster FakeUser: Usecase Interactors--><path d="M289,239 L512,239 A4.5,4.5 0 0 1 515,242 L522,258.9688 L522,258.9688 A3,3 0 0 1 525,261.9688 L525,310 A3,3 0 0 1 522,313 L289,313 A3,3 0 0 1 286,310 L286,242 A3,3 0 0 1 289,239 " fill="#FFFFFF" style="stroke: #000000; stroke-width: 1.5;"/><line style="stroke: #000000; stroke-width: 1.5;" x1="286" x2="522" y1="258.9688" y2="258.9688"/><text fill="#000000" font-family="Tahoma, sans-serif" font-size="12" font-weight="bold" lengthAdjust="spacingAndGlyphs" textLength="223" x="290" y="252.1387">FakeUser: Usecase Interactors</text><!--MD5=[ffe6647fcd228827dc4c3e89572d2568]
cluster FakeUser: Entities--><path d="M118,235 L249,235 A4.5,4.5 0 0 1 252,238 L259,254.9688 L259,254.9688 A3,3 0 0 1 262,257.9688 L262,314 A3,3 0 0 1 259,317 L118,317 A3,3 0 0 1 115,314 L115,238 A3,3 0 0 1 118,235 " fill="#FFFFFF" style="stroke: #000000; stroke-width: 1.5;"/><line style="stroke: #000000; stroke-width: 1.5;" x1="115" x2="259" y1="254.9688" y2="254.9688"/><text fill="#000000" font-family="Tahoma, sans-serif" font-size="12" font-weight="bold" lengthAdjust="spacingAndGlyphs" textLength="131" x="119" y="248.1387">FakeUser: Entities</text><!--MD5=[0245a3ad560e7ed09f26f1c47c0feddf]
cluster FakeUser: Config--><path d="M25,432 L147,432 A4.5,4.5 0 0 1 150,435 L157,451.9688 L157,451.9688 A3,3 0 0 1 160,454.9688 L160,503 A3,3 0 0 1 157,506 L25,506 A3,3 0 0 1 22,503 L22,435 A3,3 0 0 1 25,432 " fill="#FFFFFF" style="stroke: #000000; stroke-width: 1.5;"/><line style="stroke: #000000; stroke-width: 1.5;" x1="22" x2="157" y1="451.9688" y2="451.9688"/><text fill="#000000" font-family="Tahoma, sans-serif" font-size="12" font-weight="bold" lengthAdjust="spacingAndGlyphs" textLength="122" x="26" y="445.1387">FakeUser: Config</text><!--MD5=[d190e4606bb1de967b290b118f22f9ed]
cluster FakeUser: Frameworks--><path d="M187,350 L350,350 A4.5,4.5 0 0 1 353,353 L360,369.9688 L664,369.9688 A3,3 0 0 1 667,372.9688 L667,504 A3,3 0 0 1 664,507 L187,507 A3,3 0 0 1 184,504 L184,353 A3,3 0 0 1 187,350 " fill="#FFFFFF" style="stroke: #000000; stroke-width: 1.5;"/><line style="stroke: #000000; stroke-width: 1.5;" x1="184" x2="360" y1="369.9688" y2="369.9688"/><text fill="#000000" font-family="Tahoma, sans-serif" font-size="12" font-weight="bold" lengthAdjust="spacingAndGlyphs" textLength="163" x="188" y="363.1387">FakeUser: Frameworks</text><ellipse cx="548.1752" cy="74.735" fill="#F8F8F8" rx="81.6752" ry="18.735" style="stroke: #383838; stroke-width: 0.5;"/><text fill="#000000" font-family="Tahoma, sans-serif" font-size="12" font-weight="bold" lengthAdjust="spacingAndGlyphs" textLength="141" x="477.6752" y="78.2194">FakeUserController</text><ellipse cx="395.988" cy="180.1976" fill="#F8F8F8" rx="63.988" ry="15.1976" style="stroke: #383838; stroke-width: 0.5;"/><text fill="#000000" font-family="Tahoma, sans-serif" font-size="12" lengthAdjust="spacingAndGlyphs" textLength="100" x="345.988" y="183.682">createFakeUser</text><ellipse cx="444.0624" cy="283.8774" fill="#F8F8F8" rx="39.0624" ry="12.8774" style="stroke: #383838; stroke-width: 0.5;"/><text fill="#000000" font-family="Tahoma, sans-serif" font-size="12" lengthAdjust="spacingAndGlyphs" textLength="51" x="418.5624" y="287.3618">getData</text><ellipse cx="347.2193" cy="283.8774" fill="#F8F8F8" rx="44.7193" ry="12.8774" style="stroke: #383838; stroke-width: 0.5;"/><text fill="#000000" font-family="Tahoma, sans-serif" font-size="12" lengthAdjust="spacingAndGlyphs" textLength="59" x="317.7193" y="287.3618">getImage</text><!--MD5=[4057bcc862c853cf054ee3572a0e687c]
entity _User--><rect fill="#F8F8F8" height="33.9688" rx="3" ry="3" style="stroke: #000000; stroke-width: 0.5;" width="49" x="196.5" y="267"/><text fill="#000000" font-family="Tahoma, sans-serif" font-size="12" lengthAdjust="spacingAndGlyphs" textLength="29" x="206.5" y="288.1387">User</text><ellipse cx="98.1335" cy="476.8774" fill="#F8F8F8" rx="46.1335" ry="12.8774" style="stroke: #383838; stroke-width: 0.5;"/><text fill="#000000" font-family="Tahoma, sans-serif" font-size="12" lengthAdjust="spacingAndGlyphs" textLength="61" x="67.6335" y="480.3618">endpoints</text><ellipse cx="329.7975" cy="398.9595" fill="#F8F8F8" rx="52.7975" ry="12.9595" style="stroke: #383838; stroke-width: 0.5;"/><text fill="#000000" font-family="Tahoma, sans-serif" font-size="12" lengthAdjust="spacingAndGlyphs" textLength="71" x="294.2975" y="402.4439">callExternal</text><!--MD5=[bed906410d67a635de6b93b9ada9bf56]
entity _Logger--><rect fill="#F8F8F8" height="33.9688" rx="3" ry="3" style="stroke: #000000; stroke-width: 0.5;" width="63" x="200.5" y="382"/><text fill="#000000" font-family="Tahoma, sans-serif" font-size="12" lengthAdjust="spacingAndGlyphs" textLength="43" x="210.5" y="403.1387">Logger</text><ellipse cx="470.1585" cy="399.2317" fill="#F8F8F8" rx="74.1585" ry="17.2317" style="stroke: #383838; stroke-width: 0.5;"/><text fill="#000000" font-family="Tahoma, sans-serif" font-size="12" lengthAdjust="spacingAndGlyphs" textLength="124" x="408.1585" y="402.7161">userFeatureToggles</text><ellipse cx="424.7834" cy="477.1567" fill="#F8F8F8" rx="58.7834" ry="14.1567" style="stroke: #383838; stroke-width: 0.5;"/><text fill="#000000" font-family="Tahoma, sans-serif" font-size="12" lengthAdjust="spacingAndGlyphs" textLength="87" x="381.2834" y="480.6411">userMetadata</text><ellipse cx="603.8406" cy="398.8774" fill="#F8F8F8" rx="46.8406" ry="12.8774" style="stroke: #383838; stroke-width: 0.5;"/><text fill="#000000" font-family="Tahoma, sans-serif" font-size="12" lengthAdjust="spacingAndGlyphs" textLength="62" x="572.8406" y="402.3618">validators</text><!--MD5=[2c0d87f7392de58cff8a6259f9fb5b96]
link callExternal to endpoints--><path d="M298.144,409.523 C289.114,411.941 279.228,414.325 270,416 C234.406,422.459 223.464,413.006 189,424 C162.471,432.4626 135.141,449.3893 117.448,461.6368 " fill="none" id="callExternal-&gt;endpoints" style="stroke: #000000; stroke-width: 0.5;"/><polygon fill="#000000" points="113.163,464.6417,122.8281,462.7481,117.2564,461.7704,118.234,456.1987,113.163,464.6417" style="stroke: #000000; stroke-width: 0.5;"/><!--MD5=[22cc3d1c45a2805d6836a45292398a20]
link createFakeUser to getData--><path d="M402.674,195.183 C411.413,213.753 426.715,246.269 436.046,266.097 " fill="none" id="createFakeUser-&gt;getData" style="stroke: #000000; stroke-width: 0.5;"/><polygon fill="#000000" points="438.282,270.848,438.07,261.0014,436.1534,266.3237,430.8311,264.4071,438.282,270.848" style="stroke: #000000; stroke-width: 0.5;"/><!--MD5=[70dace22f79aafe6f874aa2685677958]
link createFakeUser to getImage--><path d="M389.187,195.183 C380.266,213.753 364.645,246.269 355.12,266.097 " fill="none" id="createFakeUser-&gt;getImage" style="stroke: #000000; stroke-width: 0.5;"/><polygon fill="#000000" points="352.838,270.848,360.3397,264.4664,355.0024,266.3407,353.128,261.0034,352.838,270.848" style="stroke: #000000; stroke-width: 0.5;"/><!--MD5=[d893f0d23677555a5a4c06cba57a9f9c]
link createFakeUser to _User--><path d="M362.738,192.983 C341.52,201.245 313.821,213.201 291,227 C273.62,237.509 255.769,251.856 242.444,263.397 " fill="none" id="createFakeUser-&gt;_User" style="stroke: #000000; stroke-width: 0.5;"/><polygon fill="#000000" points="238.459,266.881,247.8672,263.9681,242.223,263.5898,242.6013,257.9456,238.459,266.881" style="stroke: #000000; stroke-width: 0.5;"/><!--MD5=[d23dc132e32854997bab0f246630c7fd]
link <b>FakeUserController</b> to createFakeUser--><path d="M523.24,92.359 C494.813,111.716 448.484,143.263 420.266,162.477 " fill="none" id="&lt;b&gt;FakeUserController&lt;/b&gt;-&gt;createFakeUser" style="stroke: #000000; stroke-width: 1.0;"/><polygon fill="#000000" points="415.898,165.451,425.5884,163.6916,420.0308,162.6368,421.0856,157.0791,415.898,165.451" style="stroke: #000000; stroke-width: 1.0;"/><!--MD5=[9f30f5f21a633b9419c8f9afefe3f010]
link <b>FakeUserController</b> to _Logger--><path d="M470.203,80.15 C379.958,90.427 236.918,123.164 185,227 C165.521,265.957 172.712,283.214 185,325 C190.781,344.658 203.675,364.022 214.498,377.862 " fill="none" id="&lt;b&gt;FakeUserController&lt;/b&gt;-&gt;_Logger" style="stroke: #000000; stroke-width: 1.0;"/><polygon fill="#000000" points="217.78,381.974,215.2919,372.4446,214.6609,378.0662,209.0393,377.4352,217.78,381.974" style="stroke: #000000; stroke-width: 1.0;"/><!--MD5=[b385e4b14f08d28b661d859176f1457a]
link <b>FakeUserController</b> to userFeatureToggles--><path d="M544.829,93.197 C537.329,134.254 517.365,239.038 494,325 C489.201,342.657 482.655,362.349 477.612,376.826 " fill="none" id="&lt;b&gt;FakeUserController&lt;/b&gt;-&gt;userFeatureToggles" style="stroke: #000000; stroke-width: 1.0;"/><polygon fill="#000000" points="475.828,381.91,482.583,374.7427,477.484,377.1922,475.0345,372.0932,475.828,381.91" style="stroke: #000000; stroke-width: 1.0;"/><!--MD5=[9b1224d16998a47abd117d2d247eb506]
link <b>FakeUserController</b> to userMetadata--><path d="M566.949,92.587 C601.452,125.68 671,202.385 671,283 C671,283 671,283 671,334 C671,370.9 682.826,388.701 658,416 C634.389,441.9626 541.396,459.6919 480.271,468.8111 " fill="none" id="&lt;b&gt;FakeUserController&lt;/b&gt;-&gt;userMetadata" style="stroke: #000000; stroke-width: 1.0;"/><polygon fill="#000000" points="475.194,469.5598,484.6808,472.2056,480.1406,468.8312,483.5151,464.291,475.194,469.5598" style="stroke: #000000; stroke-width: 1.0;"/><!--MD5=[d1472e0ed79e89cde5ca547d8d92698e]
link <b>FakeUserController</b> to validators--><path d="M551.75,93.344 C553.69,102.748 556.052,114.483 558,125 C575.879,221.535 594.513,337.825 601.314,380.885 " fill="none" id="&lt;b&gt;FakeUserController&lt;/b&gt;-&gt;validators" style="stroke: #000000; stroke-width: 1.0;"/><polygon fill="#000000" points="602.121,386.001,604.668,376.4872,601.341,381.0622,596.7659,377.7352,602.121,386.001" style="stroke: #000000; stroke-width: 1.0;"/><!--MD5=[d77e46876cea116b3f41d3a22363bd90]
link getData to callExternal--><path d="M432.229,296.667 C411.579,317.137 368.824,359.517 345.688,382.45 " fill="none" id="getData-&gt;callExternal" style="stroke: #000000; stroke-width: 0.5;"/><polygon fill="#000000" points="341.877,386.227,351.0857,382.7342,345.4289,382.7079,345.4552,377.0511,341.877,386.227" style="stroke: #000000; stroke-width: 0.5;"/><!--MD5=[c03afd1bea3ed05c462a2e84506ba9ed]
link getImage to callExternal--><path d="M345.181,297.093 C342.152,317.228 336.064,357.69 332.589,380.792 " fill="none" id="getImage-&gt;callExternal" style="stroke: #000000; stroke-width: 0.5;"/><polygon fill="#000000" points="331.806,385.994,337.1012,377.6897,332.5503,381.0497,329.1903,376.4988,331.806,385.994" style="stroke: #000000; stroke-width: 0.5;"/><!--MD5=[dae1c84efe4dd63ad3c31f63c352212a]
link _Logger to userMetadata--><path d="M263.907,413.144 C266.305,414.115 268.69,415.076 271,416 C312.095,432.4339 359.577,450.8465 390.83,462.8872 " fill="none" id="_Logger-&gt;userMetadata" style="stroke: #000000; stroke-width: 0.5; stroke-dasharray: 7.0,7.0;"/><polygon fill="#000000" points="395.703,464.7637,388.7421,457.7962,391.0371,462.9666,385.8667,465.2616,395.703,464.7637" style="stroke: #000000; stroke-width: 0.5;"/><script type="text/plantuml"><![CDATA[MD5=[47e22afdb3a64da274d6793fc8c30a1d]
@startuml

scale max 1920 width
top to bottom direction

skinparam nodesep 13
skinparam ranksep 26
skinparam monochrome true
skinparam shadowing false
skinparam defaultFontName Tahoma
skinparam defaultFontSize 12
skinparam roundCorner 6
skinparam dpi 150
skinparam arrowColor black
skinparam arrowThickness 0.5
skinparam packageTitleAlignment left

skinparam usecase {
  borderThickness 0.5
}

skinparam rectangle {
  borderThickness 0.5
}

skinparam component {
  borderThickness 1
}


package "FakeUser: Controllers" {
  (<b>FakeUserController</b>)
}

package "FakeUser: Usecases" {
  (createFakeUser)
}

package "FakeUser: Usecase Interactors" {
  (getData)
  (getImage)
}

package "FakeUser: Entities" {
  rectangle "User" as _User
}

package "FakeUser: Config" {
  (endpoints)
}

package "FakeUser: Frameworks" {
  (callExternal)
  rectangle "Logger" as _Logger
  (userFeatureToggles)
  (userMetadata)
  (validators)
}

(callExternal) --> (endpoints)
(createFakeUser) --> (getData)
(createFakeUser) --> (getImage)
(createFakeUser) --> _User
(<b>FakeUserController</b>) --[thickness=1]> (createFakeUser)
(<b>FakeUserController</b>) --[thickness=1]> _Logger
(<b>FakeUserController</b>) --[thickness=1]> (userFeatureToggles)
(<b>FakeUserController</b>) --[thickness=1]> (userMetadata)
(<b>FakeUserController</b>) --[thickness=1]> (validators)
(getData) ---> (callExternal)
(getImage) ---> (callExternal)
_Logger ..> (userMetadata)

@enduml


' View and edit on https://arkit.pro
]]></script></g></svg>